<svg width="18" height="18" viewBox="0 0 18 18" fill="none" xmlns="http://www.w3.org/2000/svg">
<path d="M8.75 17.5C7.01942 17.5 5.32769 16.9868 3.88876 16.0254C2.44983 15.0639 1.32832 13.6973 0.666058 12.0985C0.00379124 10.4996 -0.169488 8.74029 0.168133 7.04296C0.505753 5.34563 1.33911 3.78653 2.56282 2.56282C3.78653 1.33911 5.34563 0.50575 7.04296 0.168129C8.7403 -0.169491 10.4996 0.00378768 12.0985 0.666054C13.6973 1.32832 15.0639 2.44983 16.0254 3.88876C16.9868 5.32769 17.5 7.01941 17.5 8.75C17.5 9.89907 17.2737 11.0369 16.8339 12.0985C16.3942 13.1601 15.7497 14.1247 14.9372 14.9372C14.1247 15.7497 13.1601 16.3942 12.0985 16.8339C11.0369 17.2737 9.89907 17.5 8.75 17.5ZM8.75 1.75C7.36553 1.75 6.01216 2.16054 4.86101 2.92971C3.70987 3.69888 2.81266 4.79213 2.28285 6.07122C1.75303 7.3503 1.61441 8.75777 1.88451 10.1156C2.1546 11.4735 2.82129 12.7208 3.80026 13.6997C4.77922 14.6787 6.0265 15.3454 7.38437 15.6155C8.74224 15.8856 10.1497 15.747 11.4288 15.2172C12.7079 14.6873 13.8011 13.7901 14.5703 12.639C15.3395 11.4878 15.75 10.1345 15.75 8.75C15.75 6.89349 15.0125 5.11301 13.6998 3.80025C12.387 2.4875 10.6065 1.75 8.75 1.75Z" fill="#718EBF"/>
<path d="M11.1214 11.1212C11.0401 11.2033 10.9433 11.2683 10.8367 11.3128C10.7301 11.3572 10.6157 11.3801 10.5002 11.3801C10.3847 11.3801 10.2703 11.3572 10.1637 11.3128C10.0571 11.2683 9.96028 11.2033 9.87894 11.1212L8.75019 9.98374L7.62144 11.1212C7.45668 11.286 7.2332 11.3786 7.00019 11.3786C6.76718 11.3786 6.54371 11.286 6.37894 11.1212C6.21417 10.9565 6.12161 10.733 6.12161 10.5C6.12161 10.267 6.21417 10.0435 6.37894 9.87874L7.51644 8.74999L6.37894 7.62124C6.29693 7.5399 6.23183 7.44312 6.18741 7.3365C6.14299 7.22987 6.12012 7.1155 6.12012 6.99999C6.12012 6.88448 6.14299 6.77011 6.18741 6.66349C6.23183 6.55686 6.29693 6.46008 6.37894 6.37874C6.46028 6.29673 6.55706 6.23164 6.66369 6.18721C6.77031 6.14279 6.88468 6.11992 7.00019 6.11992C7.1157 6.11992 7.23007 6.14279 7.3367 6.18721C7.44332 6.23164 7.5401 6.29673 7.62144 6.37874L8.75019 7.51624L9.87894 6.37874C9.96028 6.29673 10.0571 6.23164 10.1637 6.18721C10.2703 6.14279 10.3847 6.11992 10.5002 6.11992C10.6157 6.11992 10.7301 6.14279 10.8367 6.18721C10.9433 6.23164 11.0401 6.29673 11.1214 6.37874C11.2035 6.46008 11.2685 6.55686 11.313 6.66349C11.3574 6.77011 11.3803 6.88448 11.3803 6.99999C11.3803 7.1155 11.3574 7.22987 11.313 7.3365C11.2685 7.44312 11.2035 7.5399 11.1214 7.62124L9.98394 8.74999L11.1214 9.87874C11.2035 9.96008 11.2685 10.0569 11.313 10.1635C11.3574 10.2701 11.3803 10.3845 11.3803 10.5C11.3803 10.6155 11.3574 10.7299 11.313 10.8365C11.2685 10.9431 11.2035 11.0399 11.1214 11.1212Z" fill="#718EBF"/>
</svg>
