<svg xmlns="http://www.w3.org/2000/svg"  viewBox="0 0 100 100" width="100px" height="100px"><circle cx="13" cy="29" r="2" fill="#ee3e54"/><circle cx="77" cy="13" r="1" fill="#f1bc19"/><circle cx="50" cy="50" r="37" fill="#fce0a2"/><circle cx="83" cy="15" r="4" fill="#f1bc19"/><circle cx="87" cy="24" r="2" fill="#ee3e54"/><circle cx="81" cy="76" r="2" fill="#fbcd59"/><circle cx="15" cy="63" r="4" fill="#fbcd59"/><circle cx="25" cy="87" r="2" fill="#ee3e54"/><circle cx="19.5" cy="54.5" r="2.5" fill="#fff"/><circle cx="21" cy="67" r="1" fill="#f1bc19"/><circle cx="80" cy="34" r="1" fill="#fff"/><path fill="#a8dbdb" d="M35.19,64.45c-3.568-3.715-5.772-8.749-5.772-14.305c0-6.85,3.347-12.904,8.48-16.666 c1.283-2.286,2.799-4.425,4.512-6.396c-9.663,3.218-16.64,12.319-16.64,23.062c0,9.246,5.163,17.287,12.762,21.4 C37.183,69.317,36.062,66.941,35.19,64.45z"/><path fill="#78a0cf" d="M50.089,29.474c2.22,0,4.355,0.359,6.36,1.008c0.773-1.033,1.596-2.028,2.468-2.977 c-2.74-1.07-5.71-1.678-8.828-1.678c-4.596,0-8.879,1.299-12.546,3.516c-1.847,2.827-3.366,5.886-4.504,9.126 C36.765,33.039,43.009,29.474,50.089,29.474z"/><path fill="#78a0cf" d="M53.116,70.57c-0.99,0.146-1.996,0.246-3.027,0.246c-8.606,0-15.98-5.264-19.09-12.745 c0.44,3.41,1.28,6.692,2.478,9.799c4.349,4.078,10.181,6.594,16.613,6.594c1.715,0,3.387-0.182,5.002-0.52 C54.376,72.856,53.717,71.73,53.116,70.57z"/><path fill="#8889b9" d="M63.933,34.827c0.563-1.105,1.178-2.179,1.843-3.219c-3.357-2.835-7.483-4.79-12.031-5.478 c-1.381,1.017-2.68,2.139-3.884,3.355c0.077-0.001,0.152-0.012,0.229-0.012C55.421,29.474,60.266,31.511,63.933,34.827z"/><path fill="#8889b9" d="M62.717,66.485c-3.495,2.705-7.867,4.332-12.628,4.332c-1.556,0-3.066-0.186-4.524-0.512 c0.928,1.444,1.964,2.811,3.1,4.088c0.474,0.028,0.943,0.072,1.423,0.072c5.317,0,10.221-1.727,14.224-4.623 C63.728,68.752,63.195,67.633,62.717,66.485z"/><path fill="#ee3e54" d="M70.157,45.211c0.568-1.759,1.26-3.463,2.069-5.102c-1.638-3.592-4.119-6.72-7.197-9.123 c-1.304,0.493-2.549,1.1-3.728,1.81C65.658,35.618,68.884,40.03,70.157,45.211z"/><path fill="#ee3e54" d="M68.443,59.629c-2.327,4.478-6.24,8.001-11.002,9.817c1.01,0.944,2.099,1.8,3.266,2.552 c3.349-1.631,6.261-4.013,8.536-6.916C68.847,63.306,68.579,61.486,68.443,59.629z"/><g><path fill="#f4989e" d="M70.76,50.145c0,5.612-2.245,10.694-5.876,14.419c1.029,0.715,2.158,1.291,3.357,1.724 c3.824-4.297,6.167-9.94,6.167-16.143c0-4.372-1.17-8.465-3.191-12.011c-1.281,0.174-2.513,0.5-3.666,0.983 C69.573,42.312,70.76,46.086,70.76,50.145z"/></g><g><circle cx="50" cy="50" r="20.5" fill="#fff"/></g><g><path fill="#472b29" d="M29.838,46.788c-0.03,0-0.061-0.002-0.091-0.008c-0.271-0.049-0.452-0.31-0.402-0.582 c0.497-2.716,1.508-5.267,3.004-7.582c0.151-0.233,0.462-0.296,0.691-0.148c0.231,0.15,0.298,0.459,0.148,0.691 c-1.425,2.204-2.387,4.633-2.859,7.219C30.284,46.619,30.074,46.788,29.838,46.788z"/></g><g><path fill="#472b29" d="M49.988,71c-5.426,0-10.555-2.054-14.492-5.813c-3.995-3.816-6.299-8.958-6.484-14.479 c-0.009-0.276,0.207-0.507,0.483-0.516c0.314-0.032,0.507,0.208,0.517,0.483c0.177,5.257,2.37,10.154,6.176,13.788 c3.863,3.69,8.956,5.655,14.272,5.532c5.341-0.123,10.314-2.318,14.004-6.181c7.616-7.976,7.324-20.661-0.651-28.277 c-3.863-3.69-8.963-5.668-14.272-5.531c-5.341,0.123-10.314,2.318-14.004,6.181c-0.189,0.201-0.505,0.208-0.707,0.017 c-0.199-0.191-0.207-0.507-0.016-0.707c3.874-4.057,9.096-6.362,14.703-6.491c5.661-0.126,10.931,1.934,14.987,5.808 c8.374,7.998,8.681,21.316,0.683,29.691c-3.874,4.057-9.096,6.361-14.703,6.49C50.317,70.998,50.152,71,49.988,71z"/></g><g><path fill="#472b29" d="M50,74.95c-13.758,0-24.95-11.193-24.95-24.95S36.242,25.05,50,25.05S74.95,36.243,74.95,50 S63.758,74.95,50,74.95z M50,26.45c-12.985,0-23.55,10.564-23.55,23.55S37.015,73.55,50,73.55S73.55,62.985,73.55,50 S62.985,26.45,50,26.45z"/></g><g><path fill="#8578b7" d="M54.49,50.328c0,0,3.47,3.349,6.457,0.746c0.804-0.699,1.482-1.312,2.053-1.84l-3.482-3.494 l-1.858,1.849c-1.962,1.976-3.74,1.657-4.331,1.471C53.92,49.731,54.488,50.326,54.49,50.328z"/></g><g><path fill="#8578b7" d="M39.4,53.033c1.39-1.436,3.834-3.963,4.461-4.632c0.775-0.829,2.627-2.243,4.646-2.264 c0.4-0.004,0.837,0.056,1.141,0.149c-4.966-6.121-9.413-1-9.413-1L36,49.62C36,49.62,38.316,51.983,39.4,53.033z"/></g><g><path fill="#8578b7" d="M53.777,51.897c0,0-1.252-1.316-2.563-2.648c-0.794-0.807-1.686-1.216-2.651-1.216 c-0.014,0-0.029,0-0.044,0.001c-1.672,0.021-3.281,1.274-3.897,1.934c-0.193,0.206-0.561,0.592-1.013,1.062 c0.848-0.323,2.747-0.607,5.093,1.816c1.219,1.212,2.528,2.455,2.528,2.455s3.835,4.191,9.038-1.722 C57.665,54.705,54.981,53.097,53.777,51.897z"/></g><g><path fill="#472b29" d="M58.43,52.31c-2.211,0-4.087-1.776-4.113-1.802c-0.001-0.001-0.002-0.002-0.003-0.003 c-0.004-0.004-0.575-0.602-1.173-1.279c-0.074-0.084-0.083-0.208-0.022-0.302c0.062-0.094,0.176-0.134,0.285-0.103 c0.614,0.194,2.244,0.442,4.079-1.409l1.859-1.85c0.099-0.098,0.257-0.097,0.354,0.001l3.481,3.494 c0.048,0.048,0.074,0.113,0.073,0.181s-0.03,0.132-0.08,0.179c-0.685,0.634-1.358,1.237-2.059,1.845 C60.228,52.033,59.302,52.31,58.43,52.31z M54.667,50.151c0.178,0.17,3.355,3.137,6.116,0.734c0.632-0.548,1.241-1.092,1.856-1.659 l-3.122-3.133l-1.681,1.672c-1.507,1.519-2.913,1.752-3.83,1.676C54.36,49.829,54.634,50.117,54.667,50.151z"/></g><g><path fill="#472b29" d="M39.399,53.283c-0.064,0-0.127-0.025-0.174-0.07c-1.073-1.041-3.381-3.394-3.404-3.418 c-0.095-0.097-0.095-0.252,0-0.35l4.234-4.334c0.065-0.076,1.838-2.082,4.441-2.082c0.028,0,0.057,0,0.085,0 c1.848,0.031,3.617,1.073,5.26,3.098c0.069,0.085,0.074,0.206,0.013,0.297c-0.061,0.091-0.175,0.131-0.28,0.1 c-0.287-0.088-0.73-0.139-1.064-0.138c-1.933,0.02-3.717,1.382-4.467,2.185c-0.621,0.665-3.063,3.189-4.464,4.636 C39.533,53.255,39.467,53.303,39.399,53.283z M36.35,49.619c0.521,0.531,2.108,2.143,3.045,3.06 c1.419-1.466,3.689-3.814,4.283-4.45c0.804-0.86,2.726-2.321,4.826-2.343c0.169,0,0.327,0.006,0.492,0.023 c-1.409-1.553-2.893-2.352-4.418-2.379c-2.42-0.052-4.139,1.9-4.155,1.92L36.35,49.619z"/></g><g><path fill="#472b29" d="M50.48,54.83c-0.063,0-0.125-0.023-0.173-0.07c-0.36-0.346-0.813-0.785-1.28-1.245 c-0.099-0.097-0.101-0.255-0.004-0.354c0.099-0.099,0.257-0.099,0.354-0.003c0.467,0.458,0.918,0.896,1.276,1.241 c0.1,0.096,0.104,0.254,0.008,0.354C50.611,54.804,50.546,54.83,50.48,54.83z"/></g><g><path fill="#472b29" d="M54.695,56.988c-1.638,0-2.82-0.802-3.326-1.223c-0.105-0.088-0.12-0.246-0.032-0.352 c0.089-0.106,0.248-0.12,0.353-0.033c0.854,0.711,3.841,2.612,7.741-1.275c-2.439,0.512-4.755-0.961-5.83-2.031 c-0.005-0.005-1.255-1.32-2.563-2.65c-0.188-0.191-0.385-0.361-0.584-0.504c-0.222-0.16-0.451-0.291-0.682-0.389 c-0.386-0.165-0.791-0.249-1.208-0.249c-1.63,0.021-3.167,1.223-3.758,1.855c-0.1,0.106-0.246,0.261-0.428,0.451 c0.948-0.107,2.317,0.119,3.903,1.507c0.104,0.091,0.114,0.249,0.023,0.353c-0.092,0.104-0.249,0.114-0.354,0.023 c-1.959-1.715-3.505-1.494-4.252-1.21c-0.109,0.041-0.233,0.002-0.297-0.095c-0.065-0.098-0.054-0.227,0.027-0.312 c0.45-0.468,0.818-0.853,1.011-1.059c0.642-0.687,2.318-1.991,4.076-2.014c0.001,0,0.003,0,0.004,0c0.53,0,1.001,0.097,1.447,0.288 c0.265,0.113,0.526,0.262,0.778,0.444c0.221,0.16,0.438,0.348,0.646,0.559c1.313,1.333,2.566,2.651,2.566,2.651 c1.117,1.113,3.688,2.717,6.211,1.622c0.108-0.046,0.233-0.013,0.302,0.083c0.069,0.095,0.063,0.224-0.015,0.312 C58.248,56.253,56.263,56.988,54.695,56.988z"/></g></svg>